<svg id="blue" xmlns="http://www.w3.org/2000/svg" viewBox="0 0 1920 673.15"><defs><style>.cls-1{fill:currentColor;}</style></defs><path class="cls-1" d="M1579.67,672.65a1680.76,1680.76,0,0,1-221.6-15.15c-106.91-14.28-256.75-79.09-430.25-154.13C655.74,385.69,317.19,239.24.5,230.51V.5h1919V626.65c-3.46,1.26-34.21,12.17-88.32,22.94C1778.35,660.11,1691.84,672.65,1579.67,672.65Z"/><path d="M1919,1V626.3c-4.74,1.7-35.28,12.32-88,22.81s-139.26,23-251.37,23A1680,1680,0,0,1,1358.13,657c-106.84-14.27-256.65-79.07-430.11-154.1C656.05,385.27,317.63,238.9,1,230V1H1919m1-1H0V231c516,14,1081,390,1358,427a1674.15,1674.15,0,0,0,221.68,15.15C1796.93,673.15,1920,627,1920,627V0Z"/></svg>