<?xml version="1.0" encoding="utf-8"?>
<!-- Generator: Adobe Illustrator 16.0.0, SVG Export Plug-In . SVG Version: 6.00 Build 0)  -->
<!DOCTYPE svg PUBLIC "-//W3C//DTD SVG 1.1//EN" "http://www.w3.org/Graphics/SVG/1.1/DTD/svg11.dtd">
<svg version="1.1" id="Capa_1" xmlns="http://www.w3.org/2000/svg" xmlns:xlink="http://www.w3.org/1999/xlink" x="0px" y="0px"
	 width="51.833px" height="51px" viewBox="0 0 51.833 51" enable-background="new 0 0 51.833 51" xml:space="preserve">
<g id="Icon">
	<g id="Group-3" transform="translate(3.225296, 0.174685)">
		<g id="Clip-2">
		</g>
		<defs>
			<filter id="Adobe_OpacityMaskFilter" filterUnits="userSpaceOnUse" x="3.08" y="2.749" width="40.82" height="11.746">
				<feColorMatrix  type="matrix" values="1 0 0 0 0  0 1 0 0 0  0 0 1 0 0  0 0 0 1 0"/>
			</filter>
		</defs>
		<mask maskUnits="userSpaceOnUse" x="3.08" y="2.749" width="40.82" height="11.746" id="mask-2_2_">
			<g filter="url(#Adobe_OpacityMaskFilter)">
				<polygon id="path-1_2_" fill="#FFFFFF" points="3.08,2.749 43.9,2.749 43.9,14.495 3.08,14.495 				"/>
			</g>
		</mask>
		<path id="Fill-1" mask="url(#mask-2_2_)" fill="#55C8E8" d="M3.08,14.495h7.132c3.255-3.652,8.001-5.958,13.279-5.958
			c5.278,0,10.022,2.306,13.278,5.958H43.9C39.821,7.479,32.2,2.749,23.491,2.749C14.781,2.749,7.16,7.479,3.08,14.495"/>
	</g>
	<g id="Group-6" transform="translate(39.711462, 12.824291)">
		<g id="Clip-5">
		</g>
		<defs>
			<filter id="Adobe_OpacityMaskFilter_1_" filterUnits="userSpaceOnUse" x="0.284" y="1.845" width="10.292" height="11.747">
				<feColorMatrix  type="matrix" values="1 0 0 0 0  0 1 0 0 0  0 0 1 0 0  0 0 0 1 0"/>
			</filter>
		</defs>
		<mask maskUnits="userSpaceOnUse" x="0.284" y="1.845" width="10.292" height="11.747" id="mask-4_1_">
			<g filter="url(#Adobe_OpacityMaskFilter_1_)">
				<polygon id="path-3_1_" fill="#FFFFFF" points="0.284,1.847 10.575,1.847 10.575,13.592 0.284,13.592 				"/>
			</g>
		</mask>
		<path id="Fill-4" mask="url(#mask-4_1_)" fill="#F6921E" d="M4.764,13.577c0,0.004,0,0.01,0,0.015h5.813c0-0.005,0-0.009,0-0.015
			c0-4.269-1.15-8.278-3.159-11.732H0.284C3.07,4.971,4.764,9.079,4.764,13.577"/>
	</g>
	<path id="Fill-7" fill="#F6921E" d="M36.327,20.037c0.008-0.274-0.138-0.515-0.221-0.589c-0.083-0.075-0.248-0.168-0.398-0.168
		c-0.244,0-0.39,0.073-0.465,0.129c-0.078,0.055-8.275,6.352-8.275,6.352s-8.111-6.296-8.191-6.376
		c-0.132-0.131-0.398-0.216-0.674-0.133c-0.153,0.046-0.293,0.176-0.346,0.262c-0.083,0.136-0.115,0.23-0.12,0.374
		c-0.003,0.086,0,5.159,0,5.159v0.29v0.438c0,0.159,0.055,0.301,0.127,0.397c0.081,0.105,0.141,0.148,0.224,0.2
		c0.021,0.014,0.046,0.028,0.071,0.046h17.788c0.048-0.029,0.098-0.063,0.131-0.085c0.128-0.074,0.236-0.185,0.281-0.29
		c0.041-0.094,0.087-0.199,0.076-0.344V24.97C36.329,24.415,36.307,20.913,36.327,20.037"/>
	<path id="Fill-9" fill="#F6921E" d="M8.958,26.4c0-4.498,1.695-8.605,4.479-11.731H6.305C4.297,18.124,3.146,22.131,3.146,26.4
		c0,0.005,0,0.011,0,0.015h5.812C8.958,26.412,8.958,26.406,8.958,26.4"/>
	<path id="Fill-11" fill="#EE4036" d="M44.475,26.418c-0.004,4.505-1.71,8.621-4.51,11.745h7.144
		c2.017-3.457,3.175-7.468,3.179-11.745H44.475z"/>
	<path id="Fill-13" fill="#EE4036" d="M29.75,31.118h-5.59v-0.11h-5.242c0,0-0.02,0.002-0.092,0c-0.2-0.006-0.683,0.131-0.744,0.207
		c-0.081,0.102-0.195,0.244-0.195,0.479v0.255v4.946h18.191v-4.82c0,0,0.004-0.363-0.002-0.439
		c-0.017-0.209-0.098-0.347-0.197-0.447c-0.168-0.166-0.328-0.203-0.539-0.203c-0.086,0-0.487,0-0.487,0h-5.011v-0.557l-0.094,0.062
		L29.75,31.118L29.75,31.118z"/>
	<polygon id="Fill-15" fill="#EE4036" points="36.079,38.163 36.079,36.895 17.887,36.895 17.887,38.163 24.348,38.163 
		24.348,36.918 29.618,36.918 29.618,38.163 	"/>
	<path id="Fill-17" fill="#EE4036" d="M29.75,30.427v0.062l0.092-0.062l5.867-3.918c0,0,0.063-0.044,0.136-0.091H18.059
		c0.103,0.07,0.224,0.168,0.224,0.168l5.877,3.9v-0.061L29.75,30.427L29.75,30.427z"/>
	<path id="Fill-19" fill="#EE4036" d="M13.465,38.163c-2.798-3.124-4.503-7.24-4.508-11.745H3.146
		c0.003,4.277,1.161,8.288,3.178,11.745H13.465z"/>
	<path id="Fill-21" fill="#1B75BB" d="M39.965,38.165c-1.131,1.261-2.438,2.362-3.887,3.261v-3.261h-6.465v5.688
		c-0.941,0.153-1.91,0.235-2.898,0.235c-0.802,0-1.594-0.054-2.368-0.155v-5.77h-6.462v3.579c-1.661-0.95-3.153-2.164-4.42-3.579
		H6.326c4.085,6.998,11.695,11.714,20.391,11.714c8.695,0,16.308-4.716,20.393-11.714L39.965,38.165L39.965,38.165z"/>
	<path id="Fill-23" fill="#FAAF40" d="M26.983,13.056c-2.519,0-4.563,2.036-4.563,4.544c0,2.509,2.042,4.543,4.563,4.543
		c2.521,0,4.563-2.033,4.563-4.543C31.545,15.089,29.504,13.056,26.983,13.056"/>
	<polygon id="Fill-25" fill="#EE4036" points="29.75,30.427 24.16,30.427 24.16,30.486 24.16,31.008 24.16,31.118 29.75,31.118 
		29.75,30.488 	"/>
</g>
<g id="Clip-21">
</g>
<rect x="-3.209" y="-4.578" fill="none" width="58.25" height="54.792"/>
</svg>
