<?xml version="1.0" encoding="utf-8"?>
<!-- Generator: Adobe Illustrator 16.0.0, SVG Export Plug-In . SVG Version: 6.00 Build 0)  -->
<!DOCTYPE svg PUBLIC "-//W3C//DTD SVG 1.1//EN" "http://www.w3.org/Graphics/SVG/1.1/DTD/svg11.dtd">
<svg version="1.1" id="Capa_1" xmlns="http://www.w3.org/2000/svg" xmlns:xlink="http://www.w3.org/1999/xlink" x="0px" y="0px"
	 width="51.833px" height="51px" viewBox="0 0 51.833 51" enable-background="new 0 0 51.833 51" xml:space="preserve">
<g id="Clip-21">
</g>
<g>
	<defs>
		<filter id="Adobe_OpacityMaskFilter" filterUnits="userSpaceOnUse" x="-3.209" y="-4.792" width="58.25" height="54.792">
			<feColorMatrix  type="matrix" values="1 0 0 0 0  0 1 0 0 0  0 0 1 0 0  0 0 0 1 0"/>
		</filter>
	</defs>
	<mask maskUnits="userSpaceOnUse" x="-3.209" y="-4.792" width="58.25" height="54.792" id="mask-2_1_">
		<g filter="url(#Adobe_OpacityMaskFilter)">
			<path id="path-1_1_" fill="#FFFFFF" d="M2.925,26.441c0,12.973,10.643,23.525,23.723,23.525l0,0
				c13.08,0,23.724-10.555,23.724-23.525l0,0c0-12.976-10.644-23.528-23.724-23.528l0,0C13.568,2.914,2.925,13.468,2.925,26.441
				L2.925,26.441z M8.774,26.441c0-9.775,8.019-17.729,17.874-17.729l0,0c9.854,0,17.875,7.953,17.875,17.729l0,0
				c0,6.346-3.383,11.925-8.451,15.058l0,0v-4.543v-4.83c0,0,0.005-0.365-0.002-0.44l0,0c-0.018-0.209-0.1-0.351-0.198-0.449l0,0
				c-0.17-0.166-0.33-0.202-0.541-0.202l0,0c-0.09,0-0.494,0-0.494,0l0,0h-5.041h-0.762h0.762v-0.562l5.904-3.924
				c0,0,0.184-0.128,0.271-0.179l0,0c0.127-0.075,0.237-0.185,0.282-0.29l0,0c0.039-0.096,0.088-0.201,0.074-0.348l0,0v-0.725
				c-0.005-0.558-0.022-4.067-0.005-4.945l0,0c0.007-0.276-0.139-0.516-0.223-0.591l0,0c-0.084-0.076-0.25-0.168-0.402-0.168l0,0
				c-0.243,0-0.391,0.073-0.469,0.128l0,0c-0.076,0.056-8.327,6.367-8.327,6.367l0,0c0,0-8.164-6.311-8.245-6.391l0,0
				c-0.133-0.129-0.401-0.216-0.68-0.133l0,0c-0.153,0.046-0.295,0.178-0.348,0.262l0,0c-0.084,0.137-0.116,0.232-0.121,0.376l0,0
				c-0.003,0.086,0,5.168,0,5.168l0,0v0.291v0.438c0,0.159,0.056,0.302,0.129,0.398l0,0c0.08,0.105,0.141,0.148,0.224,0.2l0,0
				c0.104,0.063,0.3,0.218,0.3,0.218l0,0l6.332,4.184v0.248h0.273h-0.273H18.8c0,0-0.021,0.002-0.093,0l0,0
				c-0.201-0.006-0.688,0.131-0.749,0.207l0,0c-0.081,0.102-0.196,0.246-0.196,0.479l0,0V32v4.956v4.86
				C12.395,38.755,8.774,33.008,8.774,26.441L8.774,26.441z M24.266,36.979h5.302v6.953c-0.95,0.154-1.926,0.234-2.92,0.234l0,0
				c-0.807,0-1.604-0.053-2.382-0.156l0,0V36.979z"/>
		</g>
	</mask>
	<polygon id="Fill-24" mask="url(#mask-2_1_)" fill="#F6921E" points="-3.209,50 55.042,50 55.042,-4.792 -3.209,-4.792 	"/>
	<path id="Fill-26" fill="#F6921E" d="M31.368,17.21c0,2.458-1.938,4.451-4.326,4.451s-4.327-1.993-4.327-4.451
		s1.938-4.451,4.327-4.451C29.429,12.759,31.368,14.752,31.368,17.21"/>
	<polygon id="Fill-28" fill="#F6921E" points="24.363,30.455 29.667,30.455 29.667,29.775 24.363,29.775 	"/>
</g>
</svg>
