<?xml version="1.0" encoding="UTF-8"?>
<svg width="169px" height="51px" viewBox="0 0 169 51" version="1.1" xmlns="http://www.w3.org/2000/svg" xmlns:xlink="http://www.w3.org/1999/xlink">
    <!-- Generator: Sketch 53 (72520) - https://sketchapp.com -->
    <title>Logo Kind</title>
    <desc>Created with Sketch.</desc>
    <defs>
        <polygon id="path-1" points="0.191300395 0.0261023622 44.3312964 0.0261023622 44.3312964 12.72705 0.191300395 12.72705"></polygon>
        <polygon id="path-3" points="0.134696443 0.0786885827 11.2619289 0.0786885827 11.2619289 12.7796965 0.134696443 12.7796965"></polygon>
    </defs>
    <g id="Pages" stroke="none" stroke-width="1" fill="none" fill-rule="evenodd">
        <g id="KH_Home_Profile" transform="translate(-185.000000, -30.000000)">
            <g id="Nav" transform="translate(118.000000, 30.000000)">
                <g id="Logo-Kind" transform="translate(67.000000, 0.000000)">
                    <g id="Group-27">
                        <g id="Icon">
                            <g id="Group-3" transform="translate(3.225296, 0.174685)">
                                <mask id="mask-2" fill="white">
                                    <use xlink:href="#path-1"></use>
                                </mask>
                                <g id="Clip-2"></g>
                                <path d="M0.191300395,12.72705 L7.90298419,12.72705 C11.4231937,8.77816417 16.5550435,6.2851878 22.260996,6.2851878 C27.9675534,6.2851878 33.0994032,8.77816417 36.6198142,12.72705 L44.3312964,12.72705 C39.9190909,5.14049882 31.6786601,0.026042126 22.260996,0.026042126 C12.8437352,0.026042126 4.60350593,5.14049882 0.191300395,12.72705" id="Fill-1" fill="#55C8E8" mask="url(#mask-2)"></path>
                            </g>
                            <g id="Group-6" transform="translate(39.711462, 12.824291)">
                                <mask id="mask-4" fill="white">
                                    <use xlink:href="#path-3"></use>
                                </mask>
                                <g id="Clip-5"></g>
                                <path d="M4.97788221,12.7630311 C4.97788221,12.7686531 4.97768063,12.7740744 4.97768063,12.7796965 L11.2617676,12.7796965 C11.2617676,12.7740744 11.2619692,12.7686531 11.2619692,12.7630311 C11.2619692,8.14572402 10.0174079,3.81293268 7.84597708,0.0786885827 L0.134696443,0.0786885827 C3.14591383,3.4571374 4.97788221,7.9005626 4.97788221,12.7630311" id="Fill-4" fill="#F6921E" mask="url(#mask-4)"></path>
                            </g>
                            <path d="M35.8786209,18.7059366 C35.8852731,18.4083697 35.7298542,18.1495547 35.6393443,18.0678343 C35.549036,17.9861138 35.3722494,17.8869248 35.2073561,17.8869248 C34.945704,17.8869248 34.7876644,17.9650311 34.7050162,18.0248657 C34.6221664,18.0849012 25.758447,24.8948067 25.758447,24.8948067 C25.758447,24.8948067 16.9872534,18.0853028 16.8997672,17.9987634 C16.7578542,17.8586138 16.4685854,17.7648461 16.170447,17.8549996 C16.0053522,17.9047949 15.8529569,18.0461492 15.7967158,18.1375075 C15.7058028,18.285287 15.671534,18.387287 15.6662929,18.543098 C15.6634708,18.635661 15.6664945,24.1203697 15.6664945,24.1203697 L15.6664945,24.433598 L15.6664945,24.9068539 C15.6664945,25.0785272 15.7259609,25.233535 15.8043759,25.336539 C15.8910557,25.4503854 15.956368,25.4983736 16.0448621,25.5521846 C16.0676407,25.5658382 16.0946526,25.5843106 16.1228739,25.6039878 L35.3569292,25.6039878 C35.4083324,25.5696531 35.4623561,25.5341138 35.499447,25.5120272 C35.6357158,25.4309091 35.7560597,25.3116413 35.8036328,25.1977949 C35.846368,25.0953933 35.8969648,24.9817476 35.8832573,24.8245311 L35.8828542,24.0398539 C35.8792257,23.4394996 35.8574549,19.6526492 35.8786209,18.7059366" id="Fill-7" fill="#F6921E"></path>
                            <path d="M6.28392569,25.5873224 C6.28392569,20.7248539 8.11589407,16.2814287 11.1271115,12.9029799 L3.41583083,12.9029799 C1.2444,16.637224 4.03162052e-05,20.9700154 4.03162052e-05,25.5873224 C4.03162052e-05,25.5929445 0.000241897233,25.5983657 0.000241897233,25.6039878 L6.28412727,25.6039878 C6.28412727,25.5983657 6.28392569,25.5929445 6.28392569,25.5873224" id="Fill-9" fill="#F6921E"></path>
                            <path d="M44.6891431,25.6051524 C44.6847083,30.4770579 42.8412498,34.9277114 39.815317,38.3061602 L47.5368783,38.3061602 C49.717985,34.5689043 50.9698032,30.2300894 50.97323,25.6051524 L44.6891431,25.6051524 Z" id="Fill-11" fill="#EE4036"></path>
                            <path d="M28.766802,30.6899528 L22.7221933,30.6899528 L22.7221933,30.5684764 L17.0543395,30.5684764 C17.0543395,30.5684764 17.0317625,30.5704843 16.9547585,30.5684764 C16.7380589,30.5626535 16.2169719,30.708626 16.150047,30.7919528 C16.0627625,30.9009803 15.9387901,31.0569921 15.9387901,31.3091811 L15.9387901,31.585063 L15.9387901,36.9340394 L35.6110826,36.9340394 L35.6110826,31.7213976 C35.6110826,31.7213976 35.6153158,31.3288583 35.6082605,31.2465354 C35.5891103,31.0200472 35.5010194,30.8686535 35.3937783,30.7622362 C35.2123553,30.5825315 35.0402051,30.5419724 34.8126202,30.5419724 C34.7180787,30.5419724 34.2828652,30.5407677 34.2828652,30.5407677 L28.8661814,30.5407677 L28.8661814,29.9388071 L28.766802,30.0052677 L28.766802,30.6899528 Z" id="Fill-13" fill="#EE4036"></path>
                            <polygon id="Fill-15" fill="#EE4036" points="35.6111028 38.3062406 35.6111028 36.9340594 15.9388103 36.9340594 15.9388103 38.3062406 22.9266166 38.3062406 22.9266166 36.9589571 28.6230949 36.9589571 28.6230949 38.3062406"></polygon>
                            <path d="M28.766802,29.9388472 L28.766802,30.0053079 L28.8661814,29.9388472 L35.2099364,25.7042409 C35.2099364,25.7042409 35.2794818,25.6558512 35.3552763,25.6052528 L16.1246478,25.6052528 C16.2351142,25.6825559 16.3665451,25.7871661 16.3665451,25.7871661 L22.7221933,30.0045047 L22.7221933,29.9388472 L28.766802,29.9388472 Z" id="Fill-17" fill="#EE4036"></path>
                            <path d="M11.1578929,38.3062406 C8.13216166,34.9277917 6.28870316,30.4771382 6.2840668,25.6052327 L0.000181422924,25.6052327 C0.00340671937,30.2299689 1.2552249,34.5689846 3.43633162,38.3062406 L11.1578929,38.3062406 Z" id="Fill-19" fill="#EE4036"></path>
                            <path d="M39.8143897,38.3074252 C38.5920024,39.6721772 37.1765004,40.8614409 35.6110221,41.8330512 L35.6110221,38.3074252 L28.6230142,38.3074252 L28.6230142,44.4581457 C27.6020063,44.6260039 26.5545913,44.714752 25.4864134,44.714752 C24.6186071,44.714752 23.7643067,44.6559213 22.9267375,44.5442835 L22.9267375,38.3074252 L15.9387296,38.3074252 L15.9387296,42.1784055 C14.1428443,41.1491693 12.5299945,39.8380276 11.1590419,38.3074252 L3.43727905,38.3074252 C7.85412095,45.8747008 16.0832632,50.9738976 25.4864134,50.9738976 C34.8895636,50.9738976 43.1191091,45.8747008 47.5361526,38.3074252 L39.8143897,38.3074252 Z" id="Fill-21" fill="#1B75BB"></path>
                            <path d="M25.7753597,11.1567118 C23.0511937,11.1567118 20.8428735,13.3563378 20.8428735,16.0697787 C20.8428735,18.7830189 23.0511937,20.9826449 25.7753597,20.9826449 C28.4995257,20.9826449 30.7078458,18.7830189 30.7078458,16.0697787 C30.7078458,13.3563378 28.4995257,11.1567118 25.7753597,11.1567118" id="Fill-23" fill="#FAAF40"></path>
                            <polygon id="Fill-25" fill="#EE4036" points="28.766802 29.9388472 22.7221933 29.9388472 22.7221933 30.0045047 22.7221933 30.5683157 22.7221933 30.6899929 28.766802 30.6899929 28.766802 30.0053079"></polygon>
                        </g>
                        <g id="Name" transform="translate(63.213740, 18.487500)" fill="#1B75BB">
                            <path d="M18.1865888,4.81984573 C17.3862052,4.81984573 16.7561713,5.08965327 16.2971373,5.62926835 C15.8381033,6.16888343 15.6089114,6.89114732 15.6089114,7.79541915 L15.6089114,13.0688428 L13.7724503,13.0688428 L13.7724503,3.42754911 L15.4853753,3.42754911 L15.4853753,4.45422768 L15.5204856,4.45422768 C16.1914815,3.59609871 17.1449848,3.16639335 18.3806705,3.16639335 C19.1693507,3.16639335 19.8728561,3.32629117 20.4905364,3.64480506 C21.1085418,3.96460069 21.5913077,4.43371974 21.938184,5.05472569 C22.2850602,5.67509077 22.4593111,6.42106696 22.4593111,7.29105208 L22.4593111,13.0688428 L20.6235002,13.0688428 L20.6235002,7.81304315 C20.6235002,6.80398859 20.4203159,6.05256498 20.0142724,5.55909276 C19.6075786,5.06626141 18.9993261,4.81984573 18.1865888,4.81984573" id="Fill-3"></path>
                            <path d="M29.4688773,4.81984573 C28.8567236,4.81984573 28.2943094,4.97333482 27.78261,5.28063343 C27.2705856,5.58889335 26.8674679,6.00610169 26.5729319,6.53418105 C26.2783959,7.06193998 26.1317781,7.63872569 26.1317781,8.2654995 C26.1317781,8.85766617 26.281972,9.41426438 26.5813844,9.93593502 C26.8817721,10.458567 27.2884658,10.8757753 27.79984,11.1894826 C28.3121896,11.5025491 28.8681019,11.6589221 29.4688773,11.6589221 C30.0800557,11.6589221 30.6457208,11.5089578 31.163597,11.2064658 C31.6814731,10.9055759 32.0962942,10.5018259 32.4087104,9.99713839 C32.7198262,9.49277133 32.8761969,8.93841617 32.8761969,8.33503423 C32.8761969,7.68550942 32.7347806,7.09077927 32.4525982,6.55116419 C32.1700908,6.01154911 31.7698989,5.58889335 31.2520228,5.28063343 C30.7341466,4.97333482 30.1398731,4.81984573 29.4688773,4.81984573 L29.4688773,4.81984573 Z M32.8410866,11.6938497 C32.4639766,12.2164816 31.9724331,12.6163864 31.3667813,12.8945253 C30.7604793,13.1729846 30.098261,13.3123745 29.3804514,13.3123745 C28.4386515,13.3123745 27.5823516,13.0951186 26.8115516,12.6596453 C26.0404265,12.224813 25.4282728,11.6307237 24.9750905,10.8757753 C24.5219082,10.1224291 24.295317,9.2809628 24.295317,8.35265823 C24.295317,7.37821081 24.5131306,6.49668998 24.9484327,5.70713442 C25.3840599,4.91821974 25.9845101,4.29785466 26.7494584,3.84539831 C27.5147318,3.39294196 28.3739576,3.16639335 29.3271359,3.16639335 C30.0098352,3.16639335 30.6457208,3.28815923 31.2341426,3.53169097 C31.8225643,3.77522272 32.3108569,4.13507292 32.6996704,4.61092113 L32.7347806,4.61092113 L32.7347806,0.19081994 L34.5712417,0.19081994 L34.5712417,13.0688428 L32.8761969,13.0688428 L32.8761969,11.6938497 L32.8410866,11.6938497 Z" id="Fill-5"></path>
                            <path d="M41.9197843,4.81984573 C41.1194007,4.81984573 40.4893667,5.08965327 40.0303328,5.62926835 C39.5712988,6.16888343 39.3421069,6.90813046 39.3421069,7.8476503 L39.3421069,13.0688428 L37.5056458,13.0688428 L37.5056458,0.19081994 L39.3421069,0.19081994 L39.3421069,4.45422768 L39.3772171,4.45422768 C39.9656389,3.59609871 40.8778552,3.16639335 42.113866,3.16639335 C42.9025462,3.16639335 43.6031257,3.32629117 44.2152794,3.64480506 C44.827108,3.96460069 45.310199,4.43371974 45.662927,5.05472569 C46.0163051,5.67509077 46.1925066,6.41529911 46.1925066,7.27342808 L46.1925066,13.0688428 L44.3566957,13.0688428 L44.3566957,7.83066716 C44.3566957,6.79822073 44.1564372,6.0378249 43.7559203,5.55076141 C43.3560536,5.06337748 42.7438999,4.81984573 41.9197843,4.81984573" id="Fill-7"></path>
                            <path d="M55.0915243,12.0243479 C54.8558305,12.4309818 54.4793706,12.7466118 53.9611693,12.9731604 C53.4436182,13.1993886 52.8607231,13.3125027 52.213134,13.3125027 C50.9540415,13.3125027 49.958926,12.9327854 49.2297381,12.1723896 C48.4999001,11.4126346 48.1351436,10.2901455 48.1351436,8.80524276 L48.1351436,3.42767728 L49.9712796,3.42767728 L49.9712796,8.66585288 C49.9712796,9.67554831 50.167962,10.4269719 50.5623021,10.9198033 C50.9569673,11.4126346 51.5720469,11.6590503 52.4072157,11.6590503 C53.2436849,11.6590503 53.8789203,11.3927676 54.3148726,10.8589203 C54.7501746,10.3247527 54.9679882,9.58262173 54.9679882,8.6309253 L54.9679882,3.42767728 L56.8044493,3.42767728 L56.8044493,13.0689709 L55.1266345,13.0689709 L55.1266345,12.0243479 L55.0915243,12.0243479 Z" id="Fill-9"></path>
                            <path d="M69.8163401,4.81984573 C69.0039279,4.81984573 68.4125803,5.04575347 68.0419721,5.49820982 C67.6710388,5.95066617 67.4857348,6.66459871 67.4857348,7.63872569 L67.4857348,13.0688428 L65.6495988,13.0688428 L65.6495988,7.46536954 C65.6495988,6.56045685 65.4519411,5.89330804 65.0582511,5.46360268 C64.6635859,5.03421776 64.1193771,4.81984573 63.4246493,4.81984573 C61.8125037,4.81984573 61.0052931,5.76577431 61.0052931,7.65667014 L61.0052931,13.0688428 L59.1701323,13.0688428 L59.1701323,3.42754911 L60.8648521,3.42754911 L60.8648521,4.47153125 L60.8999623,4.47153125 C61.3001541,4.00753919 61.7123745,3.67396478 62.135648,3.47080804 C62.5595718,3.26829216 63.0832996,3.16639335 63.7074818,3.16639335 C64.3540956,3.16639335 64.9610478,3.31155109 65.5260627,3.60186657 C66.0904275,3.89154117 66.4971212,4.28663938 66.7445184,4.78523859 C67.0972464,4.22767907 67.5325484,3.81912252 68.0504246,3.55796677 C68.5683008,3.29745188 69.2100381,3.16639335 69.9749864,3.16639335 C71.234404,3.16639335 72.2145651,3.52976835 72.9148196,4.25395486 C73.6157242,4.97910268 73.9655263,5.96829018 73.9655263,7.22119692 L73.9655263,13.0688428 L72.1290652,13.0688428 L72.1290652,7.67365327 C72.1290652,6.75720486 71.9353086,6.05256498 71.54617,5.55909276 C71.1583318,5.06626141 70.5816135,4.81984573 69.8163401,4.81984573" id="Fill-11"></path>
                            <path d="M84.3824446,8.26562768 C84.3824446,7.63885387 84.2381024,7.06174772 83.9500684,6.53430923 C83.661059,6.00590942 83.2582664,5.58870109 82.7400651,5.28076161 C82.222189,4.973463 81.6337672,4.81997391 80.9751249,4.81997391 C80.3743496,4.81997391 79.8184373,4.973463 79.3060877,5.28076161 C78.7947135,5.58870109 78.3880197,6.00590942 78.0876321,6.53430923 C77.7882197,7.06174772 77.6380258,7.63885387 77.6380258,8.26562768 C77.6380258,8.85747391 77.7882197,9.41407212 78.0876321,9.93606319 C78.3880197,10.4586951 78.7947135,10.8759035 79.3060877,11.1896108 C79.8184373,11.5026773 80.3743496,11.6590503 80.9751249,11.6590503 C81.598657,11.6590503 82.1688734,11.5052408 82.6877249,11.1979422 C83.2049509,10.8906436 83.6171712,10.4756783 83.9234106,9.9536872 C84.2293249,9.43201657 84.3824446,8.86900962 84.3824446,8.26562768 L84.3824446,8.26562768 Z M84.311899,11.5718916 C83.9698991,12.1403459 83.5082644,12.5732557 82.9256943,12.8683777 C82.3431243,13.164461 81.6984611,13.3125027 80.9920299,13.3125027 C80.0505551,13.3125027 79.1825517,13.0978102 78.3880197,12.6687457 C77.5931627,12.2396812 76.9641041,11.6475146 76.4992184,10.8935275 C76.0336825,10.1392199 75.8015647,9.30993026 75.8015647,8.40501756 C75.8015647,7.39532212 76.0278308,6.49297292 76.4810131,5.69861081 C76.9345205,4.90392827 77.5492749,4.28292232 78.3262517,3.83623383 C79.1035536,3.39018621 79.9686311,3.16620109 80.9218094,3.16620109 C81.6519725,3.16620109 82.3047631,3.30302748 82.8818065,3.57571895 C83.4578747,3.84808998 83.9347889,4.25119911 84.311899,4.78504633 L84.3473343,4.78504633 L84.3473343,3.42767728 L86.1834703,3.42767728 L86.1834703,13.0689709 L84.3473343,13.0689709 L84.3473343,11.5718916 L84.311899,11.5718916 Z" id="Fill-13"></path>
                            <path d="M92.9453792,4.81984573 C92.1449955,4.81984573 91.5152867,5.08965327 91.0559276,5.62926835 C90.5968936,6.16888343 90.3677017,6.89114732 90.3677017,7.79541915 L90.3677017,13.0688428 L88.5315657,13.0688428 L88.5315657,3.42754911 L90.2441657,3.42754911 L90.2441657,4.45422768 L90.2792759,4.45422768 C90.9502718,3.59609871 91.9037751,3.16639335 93.1394608,3.16639335 C93.9281411,3.16639335 94.6316464,3.32629117 95.2496518,3.64480506 C95.8673321,3.96460069 96.350098,4.43371974 96.6969743,5.05472569 C97.0438506,5.67509077 97.2181014,6.42106696 97.2181014,7.29105208 L97.2181014,13.0688428 L95.3822905,13.0688428 L95.3822905,7.81304315 C95.3822905,6.80398859 95.1791062,6.05256498 94.7730627,5.55909276 C94.366369,5.06626141 93.7581164,4.81984573 92.9453792,4.81984573" id="Fill-15"></path>
                            <path d="M102.161397,4.81984573 C101.820047,4.81984573 101.543717,4.91821974 101.331755,5.11592907 C101.119793,5.31331796 101.014137,5.5568497 101.014137,5.84652431 C101.014137,6.10223264 101.093135,6.31051637 101.252757,6.47329812 C101.411403,6.63543899 101.605485,6.76649752 101.835327,6.86487153 C102.064519,6.96324554 102.397416,7.07668006 102.832393,7.20389335 C104.598308,7.73806101 105.481266,8.74711558 105.481266,10.2320184 C105.481266,10.8475769 105.33985,11.387192 105.057342,11.8508636 C104.77516,12.3148557 104.386672,12.6743854 103.892202,12.9294529 C103.398058,13.1848408 102.832393,13.3123745 102.196507,13.3123745 C101.597032,13.3123745 101.031367,13.1793934 100.502113,12.9124697 C99.972533,12.6452257 99.5456834,12.2539727 99.2215638,11.7374291 C98.8984194,11.2215263 98.7368473,10.6094926 98.7368473,9.90132788 L100.572333,9.90132788 C100.619797,10.4819588 100.784295,10.9196751 101.067453,11.2157584 C101.349635,11.5108805 101.737473,11.6589221 102.232593,11.6589221 C102.655866,11.6589221 102.996891,11.5371562 103.256317,11.2936245 C103.515092,11.0500928 103.644805,10.7312584 103.644805,10.3368011 C103.644805,10.0118785 103.512166,9.73341915 103.247864,9.50110268 C102.982587,9.26910665 102.561589,9.06018204 101.985521,8.87464931 C100.901979,8.51543998 100.163364,8.11777827 99.7693487,7.68294593 C99.3746835,7.24747272 99.1776759,6.68799058 99.1776759,6.00321776 C99.1776759,5.45783482 99.3194173,4.9678874 99.6015997,4.53241419 C99.8841072,4.09758185 100.260567,3.76112351 100.731955,3.52335962 C101.202367,3.2852753 101.70789,3.16639335 102.249823,3.16639335 C102.791431,3.16639335 103.288826,3.28239137 103.742008,3.51470784 C104.19454,3.74702431 104.556696,4.07771478 104.8275,4.50677927 C105.098304,4.93584375 105.240046,5.4286751 105.251424,5.98623462 L103.414963,5.98623462 C103.367824,5.62638442 103.238436,5.34151637 103.026474,5.1329122 C102.815488,4.9239876 102.526478,4.81984573 102.161397,4.81984573" id="Fill-17"></path>
                            <path d="M5.35008674,3.55716567 L7.52204576,3.55716567 L3.97298475,8.09903274 L8.0864105,13.1984593 L5.79124052,13.1984593 L1.87157133,8.20381548 L5.35008674,3.55716567 Z M0,13.1984593 L1.83613599,13.1984593 L1.83613599,0.320436508 L0,0.320436508 L0,13.1984593 Z" id="Fill-1-Copy"></path>
                            <path d="M9.42775205,13.1984593 L11.2632379,13.1984593 L11.2632379,3.55716567 L9.42775205,3.55716567 L9.42775205,13.1984593 Z M9.42775205,2.44332837 L11.2632379,2.44332837 L11.2632379,0.320436508 L9.42775205,0.320436508 L9.42775205,2.44332837 Z" id="Fill-2-Copy"></path>
                        </g>
                    </g>
                </g>
            </g>
        </g>
    </g>
</svg>