<?xml version="1.0" encoding="UTF-8"?>
<svg width="169px" height="51px" viewBox="0 0 169 51" version="1.1" xmlns="http://www.w3.org/2000/svg" xmlns:xlink="http://www.w3.org/1999/xlink">
    <!-- Generator: Sketch 53 (72520) - https://sketchapp.com -->
    <title>Logo</title>
    <desc>Created with Sketch.</desc>
    <defs>
        <path d="M0.0969618509,25.2585401 C0.0969618509,39.1298397 11.4758955,50.4150103 25.4625071,50.4150103 L25.4625071,50.4150103 C39.4493895,50.4150103 50.8283231,39.1298397 50.8283231,25.2585401 L50.8283231,25.2585401 C50.8283231,11.3875091 39.4493895,0.102338506 25.4625071,0.102338506 L25.4625071,0.102338506 C11.4758955,0.102338506 0.0969618509,11.3875091 0.0969618509,25.2585401 L0.0969618509,25.2585401 Z M6.35100123,25.2585401 C6.35100123,14.807388 14.9248123,6.30469664 25.4625071,6.30469664 L25.4625071,6.30469664 C36.0004727,6.30469664 44.5742837,14.807388 44.5742837,25.2585401 L44.5742837,25.2585401 C44.5742837,32.0445769 40.9590692,38.0094882 35.5392268,41.3584554 L35.5392268,41.3584554 L35.5392268,36.5023455 L35.5392268,31.3368027 C35.5392268,31.3368027 35.5430186,30.9478627 35.5362475,30.8667439 L35.5362475,30.8667439 C35.5172885,30.6421902 35.4298061,30.49204 35.3228231,30.3864782 L35.3228231,30.3864782 C35.1421707,30.2083931 34.9709978,30.1683709 34.744573,30.1683709 L34.744573,30.1683709 C34.6503195,30.1683709 34.2172413,30.1672965 34.2172413,30.1672965 L34.2172413,30.1672965 L28.8263791,30.1672965 L28.0116829,30.1672965 L28.8263791,30.1672965 L28.8263791,29.5707248 L35.140004,25.3745774 C35.140004,25.3745774 35.3360944,25.2386633 35.4279102,25.1838679 L35.4279102,25.1838679 C35.5636027,25.103555 35.6833153,24.9856374 35.7307129,24.8725547 L35.7307129,24.8725547 C35.7732353,24.771022 35.8233413,24.6584765 35.8100699,24.502417 L35.8100699,24.502417 L35.8097991,23.7253427 C35.8060073,23.130114 35.7843398,19.3777021 35.8057364,18.4394649 L35.8057364,18.4394649 C35.8122367,18.1445366 35.6573144,17.8880188 35.5673945,17.8074373 L35.5673945,17.8074373 C35.4774745,17.7263186 35.3014265,17.6280092 35.1372955,17.6280092 L35.1372955,17.6280092 C34.8767444,17.6280092 34.7196554,17.7053674 34.6373191,17.7647291 L34.6373191,17.7647291 C34.5547119,17.8243594 25.7330794,24.5722543 25.7330794,24.5722543 L25.7330794,24.5722543 C25.7330794,24.5722543 17.0035335,17.824628 16.9165929,17.7386744 L16.9165929,17.7386744 C16.7752127,17.6000742 16.4875773,17.5071369 16.1907332,17.5963138 L16.1907332,17.5963138 C16.0263314,17.6457371 15.8746592,17.7859489 15.8188655,17.8762002 L15.8188655,17.8762002 C15.7281331,18.0228585 15.6942777,18.123854 15.6891317,18.2780333 L15.6891317,18.2780333 C15.6858815,18.3698962 15.6891317,23.8048498 15.6891317,23.8048498 L15.6891317,23.8048498 L15.6891317,24.1153572 L15.6891317,24.5843415 C15.6891317,24.7543685 15.7484463,24.9080106 15.8264491,25.0100805 L15.8264491,25.0100805 C15.9123064,25.1228946 15.9775796,25.1704376 16.0658745,25.2236214 L16.0658745,25.2236214 C16.1774619,25.2910413 16.3857403,25.4567706 16.3857403,25.4567706 L16.3857403,25.4567706 L23.1568192,29.9301183 L23.1568192,30.1944256 L23.4485173,30.1944256 L23.1568192,30.1944256 L17.0704318,30.1944256 C17.0704318,30.1944256 17.0479518,30.1965745 16.9713032,30.1944256 L16.9713032,30.1944256 C16.755712,30.1887849 16.2367765,30.3332944 16.17042,30.4160248 L16.17042,30.4160248 C16.0834793,30.524004 15.9602457,30.6787204 15.9602457,30.9285231 L15.9602457,30.9285231 L15.9602457,31.201963 L15.9602457,36.5023455 L15.9602457,41.6995837 C10.2224333,38.4250201 6.35100123,32.2817551 6.35100123,25.2585401 L6.35100123,25.2585401 Z M22.9149563,36.5270572 L28.5842453,36.5270572 L28.5842453,43.9598948 C27.5683126,44.1261613 26.5250248,44.2126521 25.4625071,44.2126521 L25.4625071,44.2126521 C24.5985174,44.2126521 23.7486115,44.1557079 22.9149563,44.0450426 L22.9149563,44.0450426 L22.9149563,36.5270572 Z" id="path-1"></path>
    </defs>
    <g id="Pages" stroke="none" stroke-width="1" fill="none" fill-rule="evenodd">
        <g id="KH_Home" transform="translate(-185.000000, -30.000000)">
            <g id="Hero" transform="translate(0.000000, -4.000000)">
                <g id="Nav" transform="translate(118.000000, 34.000000)">
                    <g id="Logo-Kind" transform="translate(67.000000, 0.000000)">
                        <g id="Logo">
                            <g id="Group-19-Copy" transform="translate(63.213740, 18.487500)" fill="#FFFFFF">
                                <path d="M18.1865888,4.81984573 C17.3862052,4.81984573 16.7561713,5.08965327 16.2971373,5.62926835 C15.8381033,6.16888343 15.6089114,6.89114732 15.6089114,7.79541915 L15.6089114,13.0688428 L13.7724503,13.0688428 L13.7724503,3.42754911 L15.4853753,3.42754911 L15.4853753,4.45422768 L15.5204856,4.45422768 C16.1914815,3.59609871 17.1449848,3.16639335 18.3806705,3.16639335 C19.1693507,3.16639335 19.8728561,3.32629117 20.4905364,3.64480506 C21.1085418,3.96460069 21.5913077,4.43371974 21.938184,5.05472569 C22.2850602,5.67509077 22.4593111,6.42106696 22.4593111,7.29105208 L22.4593111,13.0688428 L20.6235002,13.0688428 L20.6235002,7.81304315 C20.6235002,6.80398859 20.4203159,6.05256498 20.0142724,5.55909276 C19.6075786,5.06626141 18.9993261,4.81984573 18.1865888,4.81984573" id="Fill-3"></path>
                                <path d="M29.4688773,4.81984573 C28.8567236,4.81984573 28.2943094,4.97333482 27.78261,5.28063343 C27.2705856,5.58889335 26.8674679,6.00610169 26.5729319,6.53418105 C26.2783959,7.06193998 26.1317781,7.63872569 26.1317781,8.2654995 C26.1317781,8.85766617 26.281972,9.41426438 26.5813844,9.93593502 C26.8817721,10.458567 27.2884658,10.8757753 27.79984,11.1894826 C28.3121896,11.5025491 28.8681019,11.6589221 29.4688773,11.6589221 C30.0800557,11.6589221 30.6457208,11.5089578 31.163597,11.2064658 C31.6814731,10.9055759 32.0962942,10.5018259 32.4087104,9.99713839 C32.7198262,9.49277133 32.8761969,8.93841617 32.8761969,8.33503423 C32.8761969,7.68550942 32.7347806,7.09077927 32.4525982,6.55116419 C32.1700908,6.01154911 31.7698989,5.58889335 31.2520228,5.28063343 C30.7341466,4.97333482 30.1398731,4.81984573 29.4688773,4.81984573 L29.4688773,4.81984573 Z M32.8410866,11.6938497 C32.4639766,12.2164816 31.9724331,12.6163864 31.3667813,12.8945253 C30.7604793,13.1729846 30.098261,13.3123745 29.3804514,13.3123745 C28.4386515,13.3123745 27.5823516,13.0951186 26.8115516,12.6596453 C26.0404265,12.224813 25.4282728,11.6307237 24.9750905,10.8757753 C24.5219082,10.1224291 24.295317,9.2809628 24.295317,8.35265823 C24.295317,7.37821081 24.5131306,6.49668998 24.9484327,5.70713442 C25.3840599,4.91821974 25.9845101,4.29785466 26.7494584,3.84539831 C27.5147318,3.39294196 28.3739576,3.16639335 29.3271359,3.16639335 C30.0098352,3.16639335 30.6457208,3.28815923 31.2341426,3.53169097 C31.8225643,3.77522272 32.3108569,4.13507292 32.6996704,4.61092113 L32.7347806,4.61092113 L32.7347806,0.19081994 L34.5712417,0.19081994 L34.5712417,13.0688428 L32.8761969,13.0688428 L32.8761969,11.6938497 L32.8410866,11.6938497 Z" id="Fill-5"></path>
                                <path d="M41.9197843,4.81984573 C41.1194007,4.81984573 40.4893667,5.08965327 40.0303328,5.62926835 C39.5712988,6.16888343 39.3421069,6.90813046 39.3421069,7.8476503 L39.3421069,13.0688428 L37.5056458,13.0688428 L37.5056458,0.19081994 L39.3421069,0.19081994 L39.3421069,4.45422768 L39.3772171,4.45422768 C39.9656389,3.59609871 40.8778552,3.16639335 42.113866,3.16639335 C42.9025462,3.16639335 43.6031257,3.32629117 44.2152794,3.64480506 C44.827108,3.96460069 45.310199,4.43371974 45.662927,5.05472569 C46.0163051,5.67509077 46.1925066,6.41529911 46.1925066,7.27342808 L46.1925066,13.0688428 L44.3566957,13.0688428 L44.3566957,7.83066716 C44.3566957,6.79822073 44.1564372,6.0378249 43.7559203,5.55076141 C43.3560536,5.06337748 42.7438999,4.81984573 41.9197843,4.81984573" id="Fill-7"></path>
                                <path d="M55.0915243,12.0243479 C54.8558305,12.4309818 54.4793706,12.7466118 53.9611693,12.9731604 C53.4436182,13.1993886 52.8607231,13.3125027 52.213134,13.3125027 C50.9540415,13.3125027 49.958926,12.9327854 49.2297381,12.1723896 C48.4999001,11.4126346 48.1351436,10.2901455 48.1351436,8.80524276 L48.1351436,3.42767728 L49.9712796,3.42767728 L49.9712796,8.66585288 C49.9712796,9.67554831 50.167962,10.4269719 50.5623021,10.9198033 C50.9569673,11.4126346 51.5720469,11.6590503 52.4072157,11.6590503 C53.2436849,11.6590503 53.8789203,11.3927676 54.3148726,10.8589203 C54.7501746,10.3247527 54.9679882,9.58262173 54.9679882,8.6309253 L54.9679882,3.42767728 L56.8044493,3.42767728 L56.8044493,13.0689709 L55.1266345,13.0689709 L55.1266345,12.0243479 L55.0915243,12.0243479 Z" id="Fill-9"></path>
                                <path d="M69.8163401,4.81984573 C69.0039279,4.81984573 68.4125803,5.04575347 68.0419721,5.49820982 C67.6710388,5.95066617 67.4857348,6.66459871 67.4857348,7.63872569 L67.4857348,13.0688428 L65.6495988,13.0688428 L65.6495988,7.46536954 C65.6495988,6.56045685 65.4519411,5.89330804 65.0582511,5.46360268 C64.6635859,5.03421776 64.1193771,4.81984573 63.4246493,4.81984573 C61.8125037,4.81984573 61.0052931,5.76577431 61.0052931,7.65667014 L61.0052931,13.0688428 L59.1701323,13.0688428 L59.1701323,3.42754911 L60.8648521,3.42754911 L60.8648521,4.47153125 L60.8999623,4.47153125 C61.3001541,4.00753919 61.7123745,3.67396478 62.135648,3.47080804 C62.5595718,3.26829216 63.0832996,3.16639335 63.7074818,3.16639335 C64.3540956,3.16639335 64.9610478,3.31155109 65.5260627,3.60186657 C66.0904275,3.89154117 66.4971212,4.28663938 66.7445184,4.78523859 C67.0972464,4.22767907 67.5325484,3.81912252 68.0504246,3.55796677 C68.5683008,3.29745188 69.2100381,3.16639335 69.9749864,3.16639335 C71.234404,3.16639335 72.2145651,3.52976835 72.9148196,4.25395486 C73.6157242,4.97910268 73.9655263,5.96829018 73.9655263,7.22119692 L73.9655263,13.0688428 L72.1290652,13.0688428 L72.1290652,7.67365327 C72.1290652,6.75720486 71.9353086,6.05256498 71.54617,5.55909276 C71.1583318,5.06626141 70.5816135,4.81984573 69.8163401,4.81984573" id="Fill-11"></path>
                                <path d="M84.3824446,8.26562768 C84.3824446,7.63885387 84.2381024,7.06174772 83.9500684,6.53430923 C83.661059,6.00590942 83.2582664,5.58870109 82.7400651,5.28076161 C82.222189,4.973463 81.6337672,4.81997391 80.9751249,4.81997391 C80.3743496,4.81997391 79.8184373,4.973463 79.3060877,5.28076161 C78.7947135,5.58870109 78.3880197,6.00590942 78.0876321,6.53430923 C77.7882197,7.06174772 77.6380258,7.63885387 77.6380258,8.26562768 C77.6380258,8.85747391 77.7882197,9.41407212 78.0876321,9.93606319 C78.3880197,10.4586951 78.7947135,10.8759035 79.3060877,11.1896108 C79.8184373,11.5026773 80.3743496,11.6590503 80.9751249,11.6590503 C81.598657,11.6590503 82.1688734,11.5052408 82.6877249,11.1979422 C83.2049509,10.8906436 83.6171712,10.4756783 83.9234106,9.9536872 C84.2293249,9.43201657 84.3824446,8.86900962 84.3824446,8.26562768 L84.3824446,8.26562768 Z M84.311899,11.5718916 C83.9698991,12.1403459 83.5082644,12.5732557 82.9256943,12.8683777 C82.3431243,13.164461 81.6984611,13.3125027 80.9920299,13.3125027 C80.0505551,13.3125027 79.1825517,13.0978102 78.3880197,12.6687457 C77.5931627,12.2396812 76.9641041,11.6475146 76.4992184,10.8935275 C76.0336825,10.1392199 75.8015647,9.30993026 75.8015647,8.40501756 C75.8015647,7.39532212 76.0278308,6.49297292 76.4810131,5.69861081 C76.9345205,4.90392827 77.5492749,4.28292232 78.3262517,3.83623383 C79.1035536,3.39018621 79.9686311,3.16620109 80.9218094,3.16620109 C81.6519725,3.16620109 82.3047631,3.30302748 82.8818065,3.57571895 C83.4578747,3.84808998 83.9347889,4.25119911 84.311899,4.78504633 L84.3473343,4.78504633 L84.3473343,3.42767728 L86.1834703,3.42767728 L86.1834703,13.0689709 L84.3473343,13.0689709 L84.3473343,11.5718916 L84.311899,11.5718916 Z" id="Fill-13"></path>
                                <path d="M92.9453792,4.81984573 C92.1449955,4.81984573 91.5152867,5.08965327 91.0559276,5.62926835 C90.5968936,6.16888343 90.3677017,6.89114732 90.3677017,7.79541915 L90.3677017,13.0688428 L88.5315657,13.0688428 L88.5315657,3.42754911 L90.2441657,3.42754911 L90.2441657,4.45422768 L90.2792759,4.45422768 C90.9502718,3.59609871 91.9037751,3.16639335 93.1394608,3.16639335 C93.9281411,3.16639335 94.6316464,3.32629117 95.2496518,3.64480506 C95.8673321,3.96460069 96.350098,4.43371974 96.6969743,5.05472569 C97.0438506,5.67509077 97.2181014,6.42106696 97.2181014,7.29105208 L97.2181014,13.0688428 L95.3822905,13.0688428 L95.3822905,7.81304315 C95.3822905,6.80398859 95.1791062,6.05256498 94.7730627,5.55909276 C94.366369,5.06626141 93.7581164,4.81984573 92.9453792,4.81984573" id="Fill-15"></path>
                                <path d="M102.161397,4.81984573 C101.820047,4.81984573 101.543717,4.91821974 101.331755,5.11592907 C101.119793,5.31331796 101.014137,5.5568497 101.014137,5.84652431 C101.014137,6.10223264 101.093135,6.31051637 101.252757,6.47329812 C101.411403,6.63543899 101.605485,6.76649752 101.835327,6.86487153 C102.064519,6.96324554 102.397416,7.07668006 102.832393,7.20389335 C104.598308,7.73806101 105.481266,8.74711558 105.481266,10.2320184 C105.481266,10.8475769 105.33985,11.387192 105.057342,11.8508636 C104.77516,12.3148557 104.386672,12.6743854 103.892202,12.9294529 C103.398058,13.1848408 102.832393,13.3123745 102.196507,13.3123745 C101.597032,13.3123745 101.031367,13.1793934 100.502113,12.9124697 C99.972533,12.6452257 99.5456834,12.2539727 99.2215638,11.7374291 C98.8984194,11.2215263 98.7368473,10.6094926 98.7368473,9.90132788 L100.572333,9.90132788 C100.619797,10.4819588 100.784295,10.9196751 101.067453,11.2157584 C101.349635,11.5108805 101.737473,11.6589221 102.232593,11.6589221 C102.655866,11.6589221 102.996891,11.5371562 103.256317,11.2936245 C103.515092,11.0500928 103.644805,10.7312584 103.644805,10.3368011 C103.644805,10.0118785 103.512166,9.73341915 103.247864,9.50110268 C102.982587,9.26910665 102.561589,9.06018204 101.985521,8.87464931 C100.901979,8.51543998 100.163364,8.11777827 99.7693487,7.68294593 C99.3746835,7.24747272 99.1776759,6.68799058 99.1776759,6.00321776 C99.1776759,5.45783482 99.3194173,4.9678874 99.6015997,4.53241419 C99.8841072,4.09758185 100.260567,3.76112351 100.731955,3.52335962 C101.202367,3.2852753 101.70789,3.16639335 102.249823,3.16639335 C102.791431,3.16639335 103.288826,3.28239137 103.742008,3.51470784 C104.19454,3.74702431 104.556696,4.07771478 104.8275,4.50677927 C105.098304,4.93584375 105.240046,5.4286751 105.251424,5.98623462 L103.414963,5.98623462 C103.367824,5.62638442 103.238436,5.34151637 103.026474,5.1329122 C102.815488,4.9239876 102.526478,4.81984573 102.161397,4.81984573" id="Fill-17"></path>
                                <path d="M5.35008674,3.55716567 L7.52204576,3.55716567 L3.97298475,8.09903274 L8.0864105,13.1984593 L5.79124052,13.1984593 L1.87157133,8.20381548 L5.35008674,3.55716567 Z M0,13.1984593 L1.83613599,13.1984593 L1.83613599,0.320436508 L0,0.320436508 L0,13.1984593 Z" id="Fill-1-Copy"></path>
                                <path d="M9.42775205,13.1984593 L11.2632379,13.1984593 L11.2632379,3.55716567 L9.42775205,3.55716567 L9.42775205,13.1984593 Z M9.42775205,2.44332837 L11.2632379,2.44332837 L11.2632379,0.320436508 L9.42775205,0.320436508 L9.42775205,2.44332837 Z" id="Fill-2-Copy"></path>
                            </g>
                            <g id="Group-25-Copy" transform="translate(0.000000, 0.000000)">
                                <mask id="mask-2" fill="white">
                                    <use xlink:href="#path-1"></use>
                                </mask>
                                <g id="Clip-21"></g>
                                <polygon id="Fill-24" fill="#FFFFFF" mask="url(#mask-2)" points="-6.46204693 50.4491231 55.8215876 50.4491231 55.8215876 -8.13663293 -6.46204693 -8.13663293"></polygon>
                            </g>
                            <g id="Group-30-Copy" transform="translate(21.013990, 10.420169)" fill="#FFFFFF">
                                <path d="M9.49412061,4.96880257 C9.49412061,7.5971179 7.42317915,9.72786504 4.86806516,9.72786504 C2.31320639,9.72786504 0.242264929,7.5971179 0.242264929,4.96880257 C0.242264929,2.34048723 2.31320639,0.209740089 4.86806516,0.209740089 C7.42317915,0.209740089 9.49412061,2.34048723 9.49412061,4.96880257" id="Fill-26"></path>
                                <polygon id="Fill-28" points="2.00458149 19.1310373 7.6737646 19.1310373 7.6737646 18.4034587 2.00458149 18.4034587"></polygon>
                            </g>
                        </g>
                    </g>
                </g>
            </g>
        </g>
    </g>
</svg>