<svg id="Layer_1" data-name="Layer 1" xmlns="http://www.w3.org/2000/svg" xmlns:xlink="http://www.w3.org/1999/xlink" viewBox="0 0 436.24 352.9"><defs><style>.cls-1{fill:none;}.cls-2{fill:#0d8dcc;}.cls-3{clip-path:url(#clip-path);}.cls-4{fill:#87d3e0;}.cls-5{fill:#f89c50;}.cls-6{fill:#f04b38;}</style><clipPath id="clip-path" transform="translate(-33.92 -95.73)"><path class="cls-1" d="M241.33,246.53v-.27l-1.45-1v1.32Zm22.68-.41v.27h4.05v-3Zm-59.89,71.21h34.56V278.27h28.18v39.06h34.56V278.14h-97.3Zm98.65-103.22c0-3-.13-21.79,0-26.49a4.69,4.69,0,0,0-1.18-3.17,3.61,3.61,0,0,0-2.14-.89,4.13,4.13,0,0,0-2.49.68c-.41.3-44.25,34.12-44.25,34.12s-43.39-33.82-43.82-34.25a3.69,3.69,0,0,0-5.46.69,3.67,3.67,0,0,0-.64,2c0,.46,0,27.7,0,27.7v3.91a3.58,3.58,0,0,0,.68,2.13,3.85,3.85,0,0,0,1.19,1.07c.56.34,1.59,1.17,1.59,1.17l33.65,22.42,1.46,1v.27h-32.2a9.15,9.15,0,0,0-4,1.11,3.91,3.91,0,0,0-1,2.57v27.93h97.3V252.26s0-1.95,0-2.36a3.67,3.67,0,0,0-1.06-2.41,3.62,3.62,0,0,0-2.87-1.09H264v-.27l4.05-2.72,31.38-21s1-.69,1.43-1a3.67,3.67,0,0,0,1.9-3.41m74.64,3.79A126.07,126.07,0,1,0,251.34,347.86,126.21,126.21,0,0,0,377.41,221.8Zm-31.08,0a95,95,0,1,1-95-95A95.09,95.09,0,0,1,346.33,221.8Z"/></clipPath></defs><path class="cls-2" d="M41.52,393.5v54.1h-7.6V393.5Zm14.55,13.6h9l-14.7,19.08,17,21.42H57.9l-16.23-21Z" transform="translate(-33.92 -95.73)"/><path class="cls-2" d="M80.71,393.5v8.92h-7.6V393.5Zm0,13.6v40.5h-7.6V407.1Z" transform="translate(-33.92 -95.73)"/><path class="cls-2" d="M108.71,413a9.67,9.67,0,0,0-7.83,3.4c-1.9,2.26-2.85,5.3-2.85,9.1V447.6h-7.6V407.1h7.09v4.31h.15q4.17-5.4,11.84-5.41a18.55,18.55,0,0,1,8.74,2,14.36,14.36,0,0,1,6,5.92,19.18,19.18,0,0,1,2.16,9.4V447.6h-7.6V425.52q0-6.36-2.52-9.47T108.71,413Z" transform="translate(-33.92 -95.73)"/><path class="cls-2" d="M169.39,441.82a15.3,15.3,0,0,1-6.11,5.05,19.21,19.21,0,0,1-8.22,1.75,21,21,0,0,1-10.64-2.74A20.55,20.55,0,0,1,134,427.79a22.83,22.83,0,0,1,2.71-11.12,20.8,20.8,0,0,1,26-9.13,15.16,15.16,0,0,1,6.07,4.53H169V393.5h7.6v54.1h-7v-5.78Zm-14-28.87a13.18,13.18,0,0,0-7,1.93,13.94,13.94,0,0,0-5,5.27,14.8,14.8,0,0,0-1.82,7.27,14,14,0,0,0,1.86,7,14.45,14.45,0,0,0,5,5.26,12.85,12.85,0,0,0,6.91,2,13.53,13.53,0,0,0,7-1.9,14.79,14.79,0,0,0,5.16-5.09,13.22,13.22,0,0,0,1.93-7,16.11,16.11,0,0,0-1.75-7.49,13.2,13.2,0,0,0-5-5.34A14.07,14.07,0,0,0,155.42,413Z" transform="translate(-33.92 -95.73)"/><path class="cls-2" d="M207,413a9.66,9.66,0,0,0-7.83,3.4q-2.85,3.39-2.85,9.32V447.6h-7.6V393.5h7.6v17.91h.15q3.66-5.4,11.33-5.41a18.31,18.31,0,0,1,8.7,2,14.67,14.67,0,0,1,6,5.92,18.81,18.81,0,0,1,2.19,9.32V447.6h-7.6v-22c0-4.33-.83-7.53-2.49-9.57S210.39,413,207,413Z" transform="translate(-33.92 -95.73)"/><path class="cls-2" d="M261.52,443.21a9.7,9.7,0,0,1-4.68,4,17.72,17.72,0,0,1-7.24,1.42q-7.83,0-12.36-4.79t-4.53-14.14V407.1h7.6v22q0,6.36,2.45,9.47c1.64,2.07,4.18,3.11,7.64,3.11s6.09-1.12,7.9-3.37S261,433,261,429V407.1h7.61v40.5h-6.95v-4.39Z" transform="translate(-33.92 -95.73)"/><path class="cls-2" d="M322.49,413q-5.06,0-7.35,2.85c-1.54,1.9-2.3,4.9-2.3,9V447.6h-7.61V424.06q0-5.7-2.45-8.41A8.65,8.65,0,0,0,296,413q-10,0-10,11.91V447.6h-7.6V407.1h7v4.38h.15a16.06,16.06,0,0,1,5.11-4.2,14.9,14.9,0,0,1,6.51-1.28,16.05,16.05,0,0,1,7.53,1.83,11.15,11.15,0,0,1,5,5,13.75,13.75,0,0,1,5.4-5.15,17.35,17.35,0,0,1,8-1.65q7.83,0,12.18,4.57T339.66,423V447.6h-7.6V424.93q0-5.76-2.41-8.88T322.49,413Z" transform="translate(-33.92 -95.73)"/><path class="cls-2" d="M382.51,441.31a14.06,14.06,0,0,1-5.74,5.45,17.31,17.31,0,0,1-8,1.86,22.08,22.08,0,0,1-10.78-2.7,20.46,20.46,0,0,1-7.82-7.46A19.7,19.7,0,0,1,347.27,428a22.77,22.77,0,0,1,2.81-11.37,20.6,20.6,0,0,1,7.64-7.83A21,21,0,0,1,368.47,406a18.43,18.43,0,0,1,8.11,1.72,15.18,15.18,0,0,1,5.93,5.08h.14v-5.7h7.61v40.5h-7.61v-6.29Zm.29-13.89a15.11,15.11,0,0,0-1.79-7.27,13.65,13.65,0,0,0-5-5.27,13.91,13.91,0,0,0-7.31-1.93,13,13,0,0,0-6.91,1.93,14.28,14.28,0,0,0-5,5.27,14.62,14.62,0,0,0-1.86,7.27,14,14,0,0,0,1.86,7,14.56,14.56,0,0,0,5,5.26,12.82,12.82,0,0,0,6.91,2,13.52,13.52,0,0,0,7.09-1.94,14.43,14.43,0,0,0,5.12-5.23A14,14,0,0,0,382.8,427.42Z" transform="translate(-33.92 -95.73)"/><path class="cls-2" d="M418.25,413a9.65,9.65,0,0,0-7.82,3.4c-1.9,2.26-2.85,5.3-2.85,9.1V447.6H400V407.1h7.09v4.31h.14q4.17-5.4,11.85-5.41a18.51,18.51,0,0,1,8.73,2,14.38,14.38,0,0,1,6,5.92,19.29,19.29,0,0,1,2.15,9.4V447.6h-7.6V425.52q0-6.36-2.52-9.47T418.25,413Z" transform="translate(-33.92 -95.73)"/><path class="cls-2" d="M456.41,413a4.79,4.79,0,0,0-3.43,1.24,4,4,0,0,0-1.32,3.07,3.62,3.62,0,0,0,1,2.63,7.58,7.58,0,0,0,2.41,1.65,38.24,38.24,0,0,0,4.13,1.42q11,3.38,11,12.72a13,13,0,0,1-1.76,6.8,11.89,11.89,0,0,1-4.82,4.53,14.83,14.83,0,0,1-7,1.61,15.23,15.23,0,0,1-7-1.68,13.21,13.21,0,0,1-5.3-4.93,14.39,14.39,0,0,1-2-7.72h7.6a8.88,8.88,0,0,0,2.05,5.52,6.33,6.33,0,0,0,4.83,1.87,5.92,5.92,0,0,0,4.24-1.54,5.3,5.3,0,0,0,1.61-4,4.55,4.55,0,0,0-1.65-3.51,15.11,15.11,0,0,0-5.23-2.63q-6.72-2.26-9.17-5a10.16,10.16,0,0,1-2.45-7.05,11.31,11.31,0,0,1,1.75-6.18,11.89,11.89,0,0,1,4.68-4.24,13.6,13.6,0,0,1,6.29-1.5,13.28,13.28,0,0,1,6.18,1.46,11.47,11.47,0,0,1,4.49,4.17,12,12,0,0,1,1.76,6.22H461.6a5.94,5.94,0,0,0-1.61-3.59A4.81,4.81,0,0,0,456.41,413Z" transform="translate(-33.92 -95.73)"/><g class="cls-3"><rect class="cls-4" x="58.76" width="309.55" height="63.07"/><polygon class="cls-5" points="365.61 126.15 56.06 126.15 58.76 63.08 368.31 63.08 365.61 126.15"/><polygon class="cls-6" points="368.31 189.23 58.76 189.23 56.06 126.16 365.61 126.16 368.31 189.23"/><rect class="cls-2" x="58.76" y="189.24" width="309.55" height="63.07"/></g><circle class="cls-5" cx="218.85" cy="78.8" r="24.4"/><rect class="cls-6" x="203.75" y="147.68" width="29.9" height="3.73"/></svg>