<?xml version="1.0" encoding="utf-8"?>
<!-- Generator: Adobe Illustrator 24.1.1, SVG Export Plug-In . SVG Version: 6.00 Build 0)  -->
<svg version="1.1" id="Layer_1" xmlns="http://www.w3.org/2000/svg" xmlns:xlink="http://www.w3.org/1999/xlink" x="0px" y="0px"
	 viewBox="0 0 169 51" style="enable-background:new 0 0 169 51;" xml:space="preserve">
<style type="text/css">
	.st0{fill:#FFFFFF;}
	.st1{clip-path:url(#SVGID_2_);fill:#FFFFFF;}
</style>
<g>
	<g>
		<g>
			<path class="st0" d="M56.4,17.5v13.6h-1.9V17.5H56.4z M60,20.9h2.3l-3.7,4.8l4.3,5.4h-2.4l-4.1-5.3L60,20.9z"/>
			<path class="st0" d="M66.2,17.5v2.2h-1.9v-2.2H66.2z M66.2,20.9v10.2h-1.9V20.9H66.2z"/>
			<path class="st0" d="M73.3,22.4c-0.8,0-1.5,0.3-2,0.9s-0.7,1.3-0.7,2.3v5.6h-1.9V20.9h1.8V22h0c0.7-0.9,1.7-1.4,3-1.4
				c0.8,0,1.6,0.2,2.2,0.5c0.6,0.3,1.1,0.8,1.5,1.5c0.4,0.7,0.5,1.4,0.5,2.4v6.1h-1.9v-5.6c0-1.1-0.2-1.9-0.6-2.4
				C74.8,22.6,74.1,22.4,73.3,22.4z"/>
			<path class="st0" d="M88.5,29.7c-0.4,0.6-0.9,1-1.5,1.3c-0.6,0.3-1.3,0.4-2.1,0.4c-1,0-1.9-0.2-2.7-0.7c-0.8-0.5-1.4-1.1-1.9-1.9
				c-0.5-0.8-0.7-1.7-0.7-2.7c0-1,0.2-2,0.7-2.8c0.5-0.8,1.1-1.5,1.9-2c0.8-0.5,1.7-0.7,2.7-0.7c0.7,0,1.4,0.1,2,0.4
				c0.6,0.3,1.1,0.6,1.5,1.1h0v-4.7h1.9v13.6h-1.8L88.5,29.7L88.5,29.7z M85,22.4c-0.6,0-1.2,0.2-1.8,0.5c-0.5,0.3-1,0.8-1.3,1.3
				c-0.3,0.6-0.5,1.2-0.5,1.8c0,0.6,0.2,1.2,0.5,1.8c0.3,0.6,0.7,1,1.3,1.3c0.5,0.3,1.1,0.5,1.7,0.5c0.6,0,1.2-0.2,1.8-0.5
				c0.5-0.3,1-0.7,1.3-1.3c0.3-0.5,0.5-1.1,0.5-1.8c0-0.7-0.1-1.3-0.4-1.9c-0.3-0.6-0.7-1-1.3-1.3C86.3,22.6,85.7,22.4,85,22.4z"/>
			<path class="st0" d="M98,22.4c-0.8,0-1.5,0.3-2,0.9c-0.5,0.6-0.7,1.4-0.7,2.3v5.5h-1.9V17.5h1.9V22h0c0.6-0.9,1.6-1.4,2.8-1.4
				c0.8,0,1.6,0.2,2.2,0.5c0.6,0.3,1.1,0.8,1.5,1.5c0.4,0.7,0.6,1.4,0.6,2.3v6.1h-1.9v-5.5c0-1.1-0.2-1.9-0.6-2.4
				C99.5,22.6,98.8,22.4,98,22.4z"/>
			<path class="st0" d="M111.7,30c-0.2,0.4-0.6,0.8-1.2,1c-0.5,0.2-1.1,0.4-1.8,0.4c-1.3,0-2.3-0.4-3.1-1.2c-0.8-0.8-1.1-2-1.1-3.6
				v-5.7h1.9v5.5c0,1.1,0.2,1.9,0.6,2.4s1.1,0.8,1.9,0.8c0.9,0,1.5-0.3,2-0.8c0.5-0.6,0.7-1.3,0.7-2.4v-5.5h1.9v10.2h-1.7L111.7,30
				L111.7,30z"/>
			<path class="st0" d="M127,22.4c-0.8,0-1.5,0.2-1.8,0.7c-0.4,0.5-0.6,1.2-0.6,2.3v5.7h-1.9v-5.9c0-1-0.2-1.7-0.6-2.1
				c-0.4-0.5-1-0.7-1.7-0.7c-1.7,0-2.5,1-2.5,3v5.7H116V20.9h1.8V22h0c0.4-0.5,0.8-0.8,1.3-1.1c0.4-0.2,1-0.3,1.6-0.3
				c0.7,0,1.3,0.2,1.9,0.5c0.6,0.3,1,0.7,1.3,1.3c0.4-0.6,0.8-1,1.4-1.3c0.5-0.3,1.2-0.4,2-0.4c1.3,0,2.3,0.4,3.1,1.1
				c0.7,0.8,1.1,1.8,1.1,3.1v6.2h-1.9v-5.7c0-1-0.2-1.7-0.6-2.2C128.4,22.6,127.8,22.4,127,22.4z"/>
			<path class="st0" d="M142.1,29.5c-0.4,0.6-0.8,1.1-1.4,1.4c-0.6,0.3-1.3,0.5-2,0.5c-1,0-1.9-0.2-2.7-0.7c-0.8-0.5-1.5-1.1-2-1.9
				c-0.5-0.8-0.7-1.7-0.7-2.6c0-1.1,0.2-2,0.7-2.9s1.1-1.5,1.9-2c0.8-0.5,1.7-0.7,2.7-0.7c0.8,0,1.4,0.1,2,0.4
				c0.6,0.3,1.1,0.7,1.5,1.3h0v-1.4h1.9v10.2h-1.9L142.1,29.5L142.1,29.5z M142.2,26c0-0.7-0.2-1.3-0.5-1.8c-0.3-0.6-0.7-1-1.3-1.3
				c-0.5-0.3-1.2-0.5-1.8-0.5c-0.6,0-1.2,0.2-1.7,0.5c-0.5,0.3-1,0.8-1.3,1.3c-0.3,0.6-0.5,1.2-0.5,1.8c0,0.6,0.2,1.2,0.5,1.8
				c0.3,0.6,0.7,1,1.3,1.3c0.5,0.3,1.1,0.5,1.7,0.5c0.6,0,1.2-0.2,1.8-0.5c0.5-0.3,1-0.8,1.3-1.3C142,27.3,142.2,26.7,142.2,26z"/>
			<path class="st0" d="M151.1,22.4c-0.8,0-1.5,0.3-2,0.9s-0.7,1.3-0.7,2.3v5.6h-1.9V20.9h1.8V22h0c0.7-0.9,1.7-1.4,3-1.4
				c0.8,0,1.6,0.2,2.2,0.5c0.6,0.3,1.1,0.8,1.5,1.5c0.4,0.7,0.5,1.4,0.5,2.4v6.1h-1.9v-5.6c0-1.1-0.2-1.9-0.6-2.4
				C152.6,22.6,152,22.4,151.1,22.4z"/>
			<path class="st0" d="M160.7,22.4c-0.4,0-0.6,0.1-0.9,0.3c-0.2,0.2-0.3,0.5-0.3,0.8c0,0.3,0.1,0.5,0.2,0.7
				c0.2,0.2,0.4,0.3,0.6,0.4c0.2,0.1,0.6,0.2,1,0.4c1.8,0.6,2.8,1.6,2.8,3.2c0,0.7-0.1,1.2-0.4,1.7c-0.3,0.5-0.7,0.9-1.2,1.1
				c-0.5,0.3-1.1,0.4-1.8,0.4c-0.6,0-1.2-0.1-1.8-0.4c-0.6-0.3-1-0.7-1.3-1.2c-0.3-0.5-0.5-1.2-0.5-1.9h1.9c0,0.6,0.2,1.1,0.5,1.4
				c0.3,0.3,0.7,0.5,1.2,0.5c0.4,0,0.8-0.1,1.1-0.4c0.3-0.3,0.4-0.6,0.4-1c0-0.3-0.1-0.6-0.4-0.9c-0.3-0.2-0.7-0.5-1.3-0.7
				c-1.1-0.4-1.9-0.8-2.3-1.3c-0.4-0.5-0.6-1.1-0.6-1.8c0-0.6,0.1-1.1,0.4-1.6c0.3-0.5,0.7-0.8,1.2-1.1c0.5-0.3,1-0.4,1.6-0.4
				c0.6,0,1.1,0.1,1.6,0.4c0.5,0.2,0.8,0.6,1.1,1c0.3,0.5,0.4,1,0.4,1.6H162c0-0.4-0.2-0.7-0.4-0.9
				C161.4,22.5,161.1,22.4,160.7,22.4z"/>
		</g>
		<g>
			<g>
				<defs>
					<path id="SVGID_1_" d="M21.4,29.7L21.4,29.7l-0.3-0.2v0.2H21.4z M25.5,29.6L25.5,29.6l0.7,0v-0.5L25.5,29.6z M14.7,42.5H21
						v-7.1h5.1v7.1h6.2v-7.1H14.7V42.5z M32.6,23.9c0-0.5,0-3.9,0-4.8c0-0.3-0.1-0.5-0.2-0.6c-0.1-0.1-0.2-0.2-0.4-0.2
						c-0.2,0-0.4,0.1-0.4,0.1c-0.1,0.1-8,6.2-8,6.2s-7.8-6.1-7.9-6.2c-0.1-0.1-0.4-0.2-0.7-0.1c-0.1,0-0.3,0.2-0.3,0.3
						c-0.1,0.1-0.1,0.2-0.1,0.4c0,0.1,0,5,0,5v0.3c0,0,0,0.3,0,0.4c0,0.2,0.1,0.3,0.1,0.4c0.1,0.1,0.1,0.1,0.2,0.2
						c0.1,0.1,0.3,0.2,0.3,0.2l6.1,4.1l0.3,0.2v0h-0.3h-5.5c0,0,0,0-0.1,0c-0.2,0-0.7,0.1-0.7,0.2c-0.1,0.1-0.2,0.2-0.2,0.5
						c0,0,0,0.2,0,0.2v4.8h17.6v-4.7c0,0,0-0.4,0-0.4c0-0.2-0.1-0.3-0.2-0.4c-0.2-0.2-0.3-0.2-0.5-0.2c-0.1,0-0.5,0-0.5,0h-4.8h-0.7
						v0l0.7-0.5l5.7-3.8c0,0,0.2-0.1,0.3-0.2c0.1-0.1,0.2-0.2,0.3-0.3c0-0.1,0.1-0.2,0.1-0.3 M46,25.3C46,12.7,35.8,2.5,23.3,2.5
						S0.5,12.7,0.5,25.3S10.7,48,23.3,48S46,37.8,46,25.3z M40.4,25.3c0,9.5-7.7,17.2-17.2,17.2c-9.5,0-17.2-7.7-17.2-17.2
						S13.8,8.1,23.3,8.1C32.7,8.1,40.4,15.8,40.4,25.3z"/>
				</defs>
				<use xlink:href="#SVGID_1_"  style="overflow:visible;fill:#FFFFFF;"/>
				<clipPath id="SVGID_2_">
					<use xlink:href="#SVGID_1_"  style="overflow:visible;"/>
				</clipPath>
				<rect x="-5.4" y="2.5" class="st1" width="56" height="11.4"/>
				<polygon class="st1" points="50,25.3 -5.9,25.3 -5.4,13.9 50.5,13.9 				"/>
				<polygon class="st1" points="50.5,36.7 -5.4,36.7 -5.9,25.3 50,25.3 				"/>
				<rect x="-5.4" y="36.7" class="st1" width="56" height="11.4"/>
			</g>
			<circle class="st0" cx="23.5" cy="16.7" r="4.4"/>
			<rect x="20.8" y="29.2" class="st0" width="5.4" height="0.7"/>
		</g>
	</g>
	<g>
		<path class="st0" d="M166.9,30.1v0.2h-0.4v1.1h-0.3v-1.1h-0.4v-0.2H166.9z M168.3,31.4l0-0.8c0-0.1,0-0.2,0-0.4h0
			c0,0.1-0.1,0.3-0.1,0.4l-0.2,0.7h-0.3l-0.2-0.7c0-0.1-0.1-0.3-0.1-0.4h0c0,0.1,0,0.2,0,0.4l0,0.8H167l0.1-1.3h0.4l0.2,0.6
			c0,0.1,0.1,0.2,0.1,0.3h0c0-0.1,0.1-0.2,0.1-0.3l0.2-0.6h0.4l0.1,1.3H168.3z"/>
	</g>
</g>
</svg>
